<mxfile host="app.diagrams.net" modified="2023-02-23T11:06:38.784Z" agent="5.0 (Windows)" etag="6_KJcCt4Spg2lVIi4T4w" version="20.8.23" type="github">
  <diagram name="1 oldal" id="frzoha-sSFbWyBRJqYV1">
    <mxGraphModel dx="1050" dy="538" grid="1" gridSize="10" guides="1" tooltips="1" connect="1" arrows="1" fold="1" page="1" pageScale="1" pageWidth="827" pageHeight="1169" math="0" shadow="0">
      <root>
        <mxCell id="0" />
        <mxCell id="1" parent="0" />
        <mxCell id="f_jFxjglcS5LHNjJjFDD-1" value="" style="endArrow=classic;html=1;rounded=0;" edge="1" parent="1" target="f_jFxjglcS5LHNjJjFDD-4">
          <mxGeometry width="50" height="50" relative="1" as="geometry">
            <mxPoint x="60" y="190" as="sourcePoint" />
            <mxPoint x="250" y="190" as="targetPoint" />
          </mxGeometry>
        </mxCell>
        <mxCell id="f_jFxjglcS5LHNjJjFDD-3" value="&lt;b&gt;Eredeti Feature készlet&lt;br&gt;&lt;/b&gt;" style="text;html=1;align=center;verticalAlign=middle;resizable=0;points=[];autosize=1;strokeColor=none;fillColor=none;" vertex="1" parent="1">
          <mxGeometry x="60" y="160" width="160" height="30" as="geometry" />
        </mxCell>
        <mxCell id="f_jFxjglcS5LHNjJjFDD-4" value="&lt;b&gt;Generálás&lt;/b&gt;" style="rounded=0;whiteSpace=wrap;html=1;" vertex="1" parent="1">
          <mxGeometry x="230" y="160" width="110" height="60" as="geometry" />
        </mxCell>
        <mxCell id="f_jFxjglcS5LHNjJjFDD-5" value="" style="endArrow=classic;html=1;rounded=0;exitX=1;exitY=0.5;exitDx=0;exitDy=0;" edge="1" parent="1" source="f_jFxjglcS5LHNjJjFDD-4">
          <mxGeometry width="50" height="50" relative="1" as="geometry">
            <mxPoint x="390" y="350" as="sourcePoint" />
            <mxPoint x="500" y="190" as="targetPoint" />
          </mxGeometry>
        </mxCell>
        <mxCell id="f_jFxjglcS5LHNjJjFDD-6" value="&lt;b&gt;Csökkentett adatkészlet&lt;br&gt;&lt;/b&gt;" style="text;html=1;align=center;verticalAlign=middle;resizable=0;points=[];autosize=1;strokeColor=none;fillColor=none;" vertex="1" parent="1">
          <mxGeometry x="340" y="160" width="160" height="30" as="geometry" />
        </mxCell>
        <mxCell id="f_jFxjglcS5LHNjJjFDD-7" value="&lt;b&gt;Tesztelés&lt;/b&gt;" style="rounded=0;whiteSpace=wrap;html=1;" vertex="1" parent="1">
          <mxGeometry x="500" y="160" width="120" height="60" as="geometry" />
        </mxCell>
        <mxCell id="f_jFxjglcS5LHNjJjFDD-8" value="" style="endArrow=classic;html=1;rounded=0;exitX=0.5;exitY=1;exitDx=0;exitDy=0;" edge="1" parent="1" source="f_jFxjglcS5LHNjJjFDD-7">
          <mxGeometry width="50" height="50" relative="1" as="geometry">
            <mxPoint x="390" y="350" as="sourcePoint" />
            <mxPoint x="560" y="360" as="targetPoint" />
          </mxGeometry>
        </mxCell>
        <mxCell id="f_jFxjglcS5LHNjJjFDD-9" value="&lt;b&gt;Tesztelés kiértékelése&lt;br&gt;&lt;/b&gt;" style="text;html=1;strokeColor=none;fillColor=none;align=center;verticalAlign=middle;whiteSpace=wrap;rounded=0;" vertex="1" parent="1">
          <mxGeometry x="570" y="270" width="60" height="30" as="geometry" />
        </mxCell>
        <mxCell id="f_jFxjglcS5LHNjJjFDD-10" value="&lt;b&gt;Megállási feltétel teljesül?&lt;/b&gt;" style="rhombus;whiteSpace=wrap;html=1;" vertex="1" parent="1">
          <mxGeometry x="495" y="360" width="130" height="110" as="geometry" />
        </mxCell>
        <mxCell id="f_jFxjglcS5LHNjJjFDD-11" value="" style="endArrow=classic;html=1;rounded=0;exitX=0;exitY=0.5;exitDx=0;exitDy=0;entryX=0.5;entryY=1;entryDx=0;entryDy=0;" edge="1" parent="1" source="f_jFxjglcS5LHNjJjFDD-10" target="f_jFxjglcS5LHNjJjFDD-4">
          <mxGeometry width="50" height="50" relative="1" as="geometry">
            <mxPoint x="390" y="350" as="sourcePoint" />
            <mxPoint x="440" y="300" as="targetPoint" />
            <Array as="points">
              <mxPoint x="285" y="415" />
            </Array>
          </mxGeometry>
        </mxCell>
        <mxCell id="f_jFxjglcS5LHNjJjFDD-12" value="&lt;b&gt;Nem&lt;/b&gt;" style="text;html=1;align=center;verticalAlign=middle;resizable=0;points=[];autosize=1;strokeColor=none;fillColor=none;" vertex="1" parent="1">
          <mxGeometry x="395" y="390" width="50" height="30" as="geometry" />
        </mxCell>
        <mxCell id="f_jFxjglcS5LHNjJjFDD-13" value="" style="endArrow=classic;html=1;rounded=0;exitX=1;exitY=0.5;exitDx=0;exitDy=0;" edge="1" parent="1" source="f_jFxjglcS5LHNjJjFDD-10">
          <mxGeometry width="50" height="50" relative="1" as="geometry">
            <mxPoint x="390" y="350" as="sourcePoint" />
            <mxPoint x="690" y="415" as="targetPoint" />
          </mxGeometry>
        </mxCell>
        <mxCell id="f_jFxjglcS5LHNjJjFDD-14" value="&lt;b&gt;Igen&lt;/b&gt;" style="text;html=1;align=center;verticalAlign=middle;resizable=0;points=[];autosize=1;strokeColor=none;fillColor=none;" vertex="1" parent="1">
          <mxGeometry x="625" y="390" width="50" height="30" as="geometry" />
        </mxCell>
        <mxCell id="f_jFxjglcS5LHNjJjFDD-16" value="&lt;b&gt;Validáció&lt;/b&gt;" style="rounded=0;whiteSpace=wrap;html=1;" vertex="1" parent="1">
          <mxGeometry x="690" y="385" width="120" height="60" as="geometry" />
        </mxCell>
      </root>
    </mxGraphModel>
  </diagram>
</mxfile>
